HIERARCHY
ROOT pelvis
{
  OFFSET 0 100 0
  CHANNELS 6 Xposition Yposition Zposition Zrotation Xrotation Yrotation
  JOINT pelvis_right_femur
  {
    OFFSET -10.78128 -3.44521 -0.5502486
    CHANNELS 3 Zrotation Xrotation Yrotation
    JOINT right_femur_tibia
    {
      OFFSET -0.8047443 -44.0398 -0.1307829
      CHANNELS 3 Zrotation Xrotation Yrotation
      JOINT right_tibia_foot
      {
        OFFSET 3.006224 -47.83518 -5
        CHANNELS 3 Zrotation Xrotation Yrotation
        End Site
        {
          OFFSET 0 -5 15
        }
      }
    }
  }
  JOINT pelvis_left_femur
  {
    OFFSET 10.78128 -3.44521 -0.5502486
    CHANNELS 3 Zrotation Xrotation Yrotation
    JOINT left_femur_tibia
    {
      OFFSET 0.8047443 -44.0398 -0.1307829
      CHANNELS 3 Zrotation Xrotation Yrotation
      JOINT left_tibia_foot
      {
        OFFSET -4.370144 -48.10324 -4.275266
        CHANNELS 3 Zrotation Xrotation Yrotation
        End Site
        {
          OFFSET 0 -5 15
        }
      }
    }
  }
  JOINT pelvis_spine1
  {
    OFFSET 0 6.468898 -3.129235
    CHANNELS 3 Zrotation Xrotation Yrotation
    JOINT spine1
    {
      OFFSET 0 23.15396 4.99043
      CHANNELS 3 Zrotation Xrotation Yrotation
      JOINT spine2
      {
        OFFSET 0 20.79997 -5.064912
        CHANNELS 3 Zrotation Xrotation Yrotation
        JOINT neck
        {
          OFFSET 0 14.38658 9.616178
          CHANNELS 3 Zrotation Xrotation Yrotation
          End Site
          {
            OFFSET 0 20 0
          }
        }
      }
      JOINT right_manubrium
      {
        OFFSET -5.722621 16.35077 3.967754
        CHANNELS 3 Zrotation Xrotation Yrotation
        JOINT right_clavicle
        {
          OFFSET -13.16364 1.694482 -4.693211
          CHANNELS 3 Zrotation Xrotation Yrotation
          JOINT right_humerus
          {
            OFFSET -28.5034 -0.3100689 -2.792744
            CHANNELS 3 Zrotation Xrotation Yrotation
            JOINT right_radius
            {
              OFFSET -25.15693 0.02248979 -1.271978
              CHANNELS 3 Zrotation Xrotation Yrotation
              End Site
              {
                OFFSET -15 0 0
              }
            }
          }
        }
      }
      JOINT left_manubrium
      {
        OFFSET 5.722621 16.35077 3.967754
        CHANNELS 3 Zrotation Xrotation Yrotation
        JOINT left_clavicle
        {
          OFFSET 13.16364 1.694482 -4.693211
          CHANNELS 3 Zrotation Xrotation Yrotation
          JOINT left_humerus
          {
            OFFSET 29.39168 -1.063119 -2.237045
            CHANNELS 3 Zrotation Xrotation Yrotation
            JOINT left_radius
            {
              OFFSET 24.59957 -0.9528479 0.9047498
              CHANNELS 3 Zrotation Xrotation Yrotation
              End Site
              {
                OFFSET 15 -0 -0
              }
            }
          }
        }
      }
    }
  }
}
MOTION
Frames: 19
Frame Time: 0.0416666666667
0 103.5113 0 1.5368 -0.9586671 -0.2926007 2.510512 -14.76244 9.571269 -0 38.15633 -0 -7.226936 -17.08639 -2.926461 -7.577834 9.111356 -22.82719 -0 6.767734 -0 18.41298 -8.419896 29.20108 -4.565945 -3.849563 4.415204 3.326164 11.49509 -7.863228 1.469147 22.54053 5.745267 2.533816 -24.16721 8.791071 7.091881 -20.73464 12.30241 85.46126 39.58081 -17.22764 -0 0 15.14793 -7.766295 7.551425 6.957334 2.972653 -17.85369 -4.267718 -91.11465 21.21972 20.13803 0 0 -14.11808 14.04259 13.22117 -2.01825
0.3481211 103.8636 1.440017 1.45885 -0.9291752 -0.567823 2.432976 -16.08346 8.927889 -0 36.96695 -0 -7.565339 -16.36985 -2.873279 -7.399072 9.445552 -22.30761 -0 6.331521 -0 18.20561 -8.962975 28.60234 -4.538384 -3.568059 4.22145 3.294657 11.41263 -7.885804 1.492466 22.57386 5.726002 2.590043 -23.97589 8.701014 6.896645 -20.44771 12.18315 85.68064 39.4116 -17.37558 -0 0 14.65297 -8.098817 7.487279 7.053546 3.155981 -18.16354 -4.424297 -90.4381 20.92353 19.17927 0 0 -14.7021 14.49636 13.13021 -2.518978
0.7020965 104.228 2.779367 1.446815 -0.812552 -0.8119339 2.820706 -15.71869 9.79342 -0 38.10313 -0 -6.008592 -17.71344 -3.157374 -7.545341 9.354037 -22.82227 -0 6.417116 -0 15.82446 -10.97601 28.7966 -4.378717 -4.07532 4.865664 3.003458 10.8633 -7.788543 1.535401 22.20927 5.914739 2.555381 -24.20461 9.085527 6.84957 -20.48692 12.02454 85.32643 37.9738 -17.57203 -0 0 16.03501 -7.36407 7.889307 5.674312 4.269194 -18.59463 -2.976114 -91.59877 21.58669 20.2335 0 0 -14.27542 13.74598 14.25127 -1.989441
1.05026 104.5352 4.18199 1.264767 -0.601931 -1.019594 3.217172 -16.82503 9.8531 -0 37.68249 -0 -5.440209 -17.51413 -3.186925 -7.436664 9.43976 -22.67033 -0 6.222953 -0 14.03261 -12.93936 28.47553 -4.185896 -4.124496 5.12102 2.807663 10.51971 -7.793979 1.558458 21.89297 6.112324 2.68866 -24.33628 9.267421 6.74816 -20.33512 11.87844 85.20795 37.02466 -17.81304 -0 0 16.61281 -7.307931 8.230204 4.918131 5.259915 -19.22936 -2.072148 -91.99787 21.65745 20.33314 0 0 -14.31047 13.611 14.97222 -2.047024
1.394248 104.7654 5.702735 0.9900043 -0.2731855 -1.189394 3.74165 -18.47856 9.739615 -0 36.6163 -0 -5.127563 -16.69848 -3.096028 -7.244005 9.535136 -22.31924 -0 5.999784 -0 12.24407 -15.10606 27.99748 -3.95415 -4.048664 5.299123 2.650492 10.23416 -7.848034 1.567683 21.50734 6.365949 2.920959 -24.54738 9.417828 6.657467 -20.16093 11.75075 85.10546 36.19 -18.08547 -0 0 17.07282 -7.464904 8.630633 4.306396 6.32354 -19.96826 -1.203836 -92.34314 21.54434 20.32417 0 0 -14.41078 13.57613 15.6345 -2.222154
1.727498 104.876 7.431458 0.6647104 0.1614137 -1.306924 4.297139 -20.76214 9.324763 -0 34.60765 -0 -5.119589 -15.27056 -2.897093 -6.966903 9.799719 -21.70078 -0 5.702239 -0 10.51868 -17.39101 27.20486 -3.730187 -3.809504 5.334965 2.562751 9.971435 -7.945649 1.569806 21.10742 6.633658 3.222976 -24.77964 9.502618 6.515044 -19.89296 11.61224 85.09501 35.47622 -18.43234 -0 0 17.22405 -7.829709 8.99649 3.899467 7.360773 -20.75713 -0.4951146 -92.44793 21.30411 19.98904 0 0 -14.77276 13.62188 16.13356 -2.492627
2.043435 104.8401 9.447992 0.3038748 0.6876878 -1.357655 4.878111 -23.46851 8.699468 -0 31.85972 -0 -5.337812 -13.3667 -2.606361 -6.632438 10.2424 -20.88001 -0 5.446019 -0 8.782358 -19.71199 26.10653 -3.510173 -3.452399 5.248469 2.54624 9.715937 -8.076753 1.561882 20.69426 6.910514 3.574399 -25.04471 9.532118 6.328493 -19.55114 11.46685 85.16035 34.85145 -18.8519 -0 0 17.12535 -8.323975 9.309107 3.656643 8.326356 -21.53645 0.06644878 -92.40312 21.03387 19.45904 0 0 -15.35069 13.61374 16.47711 -2.715616
2.333458 104.6438 11.83234 -0.08047679 1.284183 -1.325325 5.463851 -26.42814 7.909744 -0 28.53838 -0 -5.748372 -11.09339 -2.240041 -6.257624 10.89183 -19.88765 -0 5.364279 -0 7.001921 -21.92194 24.6723 -3.286096 -3.00633 5.037303 2.603668 9.458361 -8.232399 1.541823 20.28361 7.179721 3.948936 -25.33287 9.503605 6.094033 -19.13684 11.31389 85.31156 34.30246 -19.34661 -0 0 16.77606 -8.888395 9.534281 3.562795 9.147701 -22.24759 0.4471951 -92.22827 20.79755 18.7872 0 0 -16.13209 13.47267 16.63943 -2.798523
2.588484 104.2955 14.65863 -0.482249 1.923017 -1.194965 6.047792 -29.40378 7.030719 -0 24.91476 -0 -6.311507 -8.592675 -1.82163 -5.861108 11.73754 -18.7685 -0 5.648325 -0 5.164572 -23.80905 22.90078 -3.035404 -2.513475 4.709301 2.72961 9.200287 -8.402176 1.506156 19.88996 7.423514 4.314775 -25.63654 9.418033 5.817449 -18.66388 11.1575 85.55382 33.82541 -19.90686 -0 0 16.19935 -9.456337 9.650888 3.597095 9.746586 -22.82768 0.6176705 -91.95706 20.63923 18.05619 0 0 -17.06172 13.14817 16.5942 -2.670564
2.799867 103.831 17.99205 -0.8957633 2.563084 -0.9561045 6.627731 -32.1039 6.146378 -0 21.32428 -0 -6.983338 -6.04997 -1.388448 -5.460833 12.73508 -17.57008 -0 6.54282 -0 3.288199 -25.10908 20.81735 -2.727893 -2.02404 4.28067 2.908962 8.948811 -8.573124 1.45086 19.53364 7.620717 4.633096 -25.93815 9.27706 5.506542 -18.14696 11.00233 85.89575 33.41956 -20.516 -0 0 15.42098 -9.961524 9.65001 3.733483 10.04839 -23.21738 0.5544209 -91.61169 20.57813 17.33907 0 0 -18.06106 12.63786 16.31471 -2.306869
2.961071 103.318 21.88248 -1.313359 3.143642 -0.6084985 7.203706 -34.18176 5.347021 -0 18.15479 -0 -7.711213 -3.700046 -0.9947283 -5.072505 13.78697 -16.34401 -0 8.345616 -0 1.424038 -25.53821 18.49506 -2.330739 -1.59349 3.7832 3.114025 8.716614 -8.729026 1.371606 19.2412 7.750522 4.862489 -26.20727 9.084174 5.173134 -17.60239 10.85465 86.3435 33.08214 -21.14745 -0 0 14.4768 -10.34744 9.544359 3.937488 10.00199 -23.3718 0.2577344 -91.21107 20.60803 16.69903 0 0 -19.02233 11.9885 15.79086 -1.73363
3.069477 102.8576 26.35615 -1.72122 3.578407 -0.1702203 7.765694 -35.26286 4.709934 -0 15.7914 -0 -8.43894 -1.81157 -0.7081741 -4.706283 14.72781 -15.14033 -0 11.3919 -0 -0.3496686 -24.85048 16.06259 -1.81881 -1.271163 3.268598 3.304523 8.522401 -8.850099 1.265173 19.0463 7.796479 4.967654 -26.39659 8.843434 4.833135 -17.04669 10.72359 86.89428 32.80339 -21.7627 -0 0 13.41347 -10.58495 9.373133 4.168103 9.600167 -23.27682 -0.2364151 -90.77401 20.69844 16.17951 0 0 -19.81412 11.28804 15.04853 -1.026502
3.127871 102.5796 31.40381 -2.094047 3.755782 0.3133562 8.276083 -34.99605 4.273759 -0 14.52978 -0 -9.119989 -0.6495741 -0.5954117 -4.364192 15.31016 -14.00106 -0 16.01069 -0 -1.949371 -22.91462 13.69642 -1.188788 -1.082915 2.811468 3.431422 8.392863 -8.912735 1.132129 18.98761 7.750932 4.932414 -26.44305 8.557751 4.506994 -16.49935 10.62358 87.52523 32.56549 -22.30672 -0 0 12.29459 -10.69163 9.200704 4.383633 8.894126 -22.96608 -0.853954 -90.32727 20.80049 15.80311 0 0 -20.29257 10.64269 14.16618 -0.2937112
3.144567 102.6283 36.96619 -2.38961 3.551684 0.764238 8.657393 -33.13031 4.01652 -0 14.46037 -0 -9.73616 -0.4137981 -0.6956589 -4.04024 15.20168 -12.95235 -0 22.43371 -0 -3.317769 -19.79784 11.59463 -0.4760249 -1.01087 2.507275 3.445608 8.363307 -8.8889 0.9804834 19.10279 7.618036 4.773869 -26.27669 8.226841 4.218359 -15.98939 10.57626 88.18044 32.34716 -22.70256 -0 0 11.20966 -10.74459 9.103983 4.55185 7.994491 -22.53089 -1.496711 -89.91453 20.85804 15.57991 0 0 -20.32351 10.14336 13.27681 0.3536754
3.131247 103.1332 42.91944 -2.547506 2.862026 1.078257 8.802766 -29.60675 3.855317 -0 15.35073 -0 -10.30936 -1.159564 -0.9898355 -3.724874 14.00973 -11.997 -0 30.63751 -0 -4.442165 -15.83277 9.945727 0.2299357 -0.9795036 2.460961 3.311115 8.47226 -8.745557 0.8285794 19.41743 7.413835 4.551308 -25.83997 7.84563 3.989728 -15.56408 10.60926 88.7619 32.13632 -22.84793 -0 0 10.28222 -10.87535 9.146627 4.664066 7.054908 -22.11057 -2.071196 -89.6025 20.82333 15.52651 0 0 -19.81686 9.83152 12.54424 0.837503
3.098713 104.1634 49.07057 -2.497777 1.655684 1.151956 8.612832 -24.63644 3.671495 -0 16.58783 -0 -10.8885 -2.726042 -1.381692 -3.412269 11.35798 -11.11004 -0 40.12706 -0 -5.335508 -11.62656 8.903104 0.780126 -0.863534 2.761497 3.020376 8.744332 -8.446442 0.7039514 19.93066 7.16195 4.359473 -25.11542 7.404081 3.834472 -15.29327 10.74863 89.13335 31.94845 -22.62016 -0 0 9.665005 -11.23494 9.343285 4.75021 6.238136 -21.85129 -2.520712 -89.47493 20.67404 15.68551 0 0 -18.77047 9.677946 12.11049 1.14353
3.053195 105.672 55.17919 -2.181492 0.03221253 0.9295873 8.041567 -18.71197 3.346667 -0 17.28063 -0 -11.50481 -4.726377 -1.710623 -3.103456 7.032252 -10.24312 -0 49.74 -0 -5.981912 -7.956874 8.560753 0.9881215 -0.5333732 3.442349 2.605089 9.160441 -7.960907 0.634729 20.60371 6.884654 4.295949 -24.14977 6.891053 3.747281 -15.25909 11.00259 89.14565 31.84075 -21.89555 -0 0 9.507366 -11.9263 9.627414 4.885119 5.668828 -21.83512 -2.841708 -89.60384 20.42638 16.12487 0 0 -17.30755 9.586259 12.02821 1.334723
2.997361 107.4606 61.01703 -1.578791 -1.754935 0.4483134 7.132202 -12.5002 2.798998 -0 16.60037 -0 -12.12231 -6.665279 -1.809105 -2.79588 1.166517 -9.341445 -0 57.65161 -0 -6.291348 -5.524169 8.928214 0.6984192 0.06632755 4.438734 2.132993 9.628897 -7.283315 0.6341188 21.36174 6.592787 4.405186 -23.05176 6.306013 3.6983 -15.5249 11.3403 88.681 31.90186 -20.58102 -0 0 9.894419 -12.92714 9.84953 5.171482 5.38754 -22.01056 -3.068285 -89.99992 20.13754 16.8962 0 0 -15.67384 9.427703 12.21637 1.532629
2.936953 109.204 66.44855 -0.739367 -3.356001 -0.1590688 6.033436 -6.6243 2.022262 -0 14.26918 -0 -12.63446 -8.186066 -1.596535 -2.458363 -5.641681 -8.365707 -0 61.78114 -0 -6.136468 -4.635315 9.927808 -0.1043175 0.8527321 5.565583 1.684168 9.988141 -6.456475 0.6866246 22.11421 6.28309 4.629964 -21.94686 5.676932 3.637427 -16.09451 11.68046 87.69566 32.20018 -18.64438 -0 0 10.79286 -14.06215 9.833676 5.697602 5.336089 -22.18248 -3.228189 -90.57343 19.8925 17.96231 0 0 -14.15826 9.099001 12.48754 1.86153
